<svg xmlns="http://www.w3.org/2000/svg" xmlns:xlink="http://www.w3.org/1999/xlink" width="500" zoomAndPan="magnify" viewBox="0 0 375 374.999991" height="500" preserveAspectRatio="xMidYMid meet" version="1.0"><defs><g/><clipPath id="fc06204de7"><path d="M 106 84.320312 L 269 84.320312 L 269 204 L 106 204 Z M 106 84.320312 " clip-rule="nonzero"/></clipPath><clipPath id="7ed6080451"><path d="M 99.578125 137 L 275.078125 137 L 275.078125 226.070312 L 99.578125 226.070312 Z M 99.578125 137 " clip-rule="nonzero"/></clipPath></defs><g fill="#595b59" fill-opacity="1"><g transform="translate(70.1191, 265.084816)"><g><path d="M 22.390625 -12.203125 C 22.390625 -8.296875 21.3125 -5.285156 19.15625 -3.171875 C 17.007812 -1.054688 13.988281 0 10.09375 0 L 2.53125 0 L 2.53125 -23.40625 L 10.625 -23.40625 C 14.382812 -23.40625 17.285156 -22.441406 19.328125 -20.515625 C 21.367188 -18.597656 22.390625 -15.828125 22.390625 -12.203125 Z M 15.828125 -11.96875 C 15.828125 -14.113281 15.398438 -15.703125 14.546875 -16.734375 C 13.703125 -17.773438 12.414062 -18.296875 10.6875 -18.296875 L 8.859375 -18.296875 L 8.859375 -5.1875 L 10.265625 -5.1875 C 12.179688 -5.1875 13.585938 -5.742188 14.484375 -6.859375 C 15.378906 -7.972656 15.828125 -9.675781 15.828125 -11.96875 Z M 15.828125 -11.96875 "/></g></g></g><g fill="#595b59" fill-opacity="1"><g transform="translate(97.255913, 265.084816)"><g><path d="M 2.53125 0 L 2.53125 -23.40625 L 8.890625 -23.40625 L 8.890625 0 Z M 2.53125 0 "/></g></g></g><g fill="#595b59" fill-opacity="1"><g transform="translate(111.749122, 265.084816)"><g><path d="M 24.421875 -11.734375 C 24.421875 -7.796875 23.453125 -4.800781 21.515625 -2.75 C 19.585938 -0.707031 16.765625 0.3125 13.046875 0.3125 C 9.367188 0.3125 6.550781 -0.710938 4.59375 -2.765625 C 2.644531 -4.828125 1.671875 -7.828125 1.671875 -11.765625 C 1.671875 -15.660156 2.640625 -18.632812 4.578125 -20.6875 C 6.523438 -22.738281 9.359375 -23.765625 13.078125 -23.765625 C 16.796875 -23.765625 19.613281 -22.742188 21.53125 -20.703125 C 23.457031 -18.671875 24.421875 -15.679688 24.421875 -11.734375 Z M 8.328125 -11.734375 C 8.328125 -7.210938 9.898438 -4.953125 13.046875 -4.953125 C 14.648438 -4.953125 15.835938 -5.5 16.609375 -6.59375 C 17.378906 -7.695312 17.765625 -9.410156 17.765625 -11.734375 C 17.765625 -14.066406 17.375 -15.789062 16.59375 -16.90625 C 15.8125 -18.019531 14.640625 -18.578125 13.078125 -18.578125 C 9.910156 -18.578125 8.328125 -16.296875 8.328125 -11.734375 Z M 8.328125 -11.734375 "/></g></g></g><g fill="#595b59" fill-opacity="1"><g transform="translate(140.950517, 265.084816)"><g><path d="M 17.828125 -7.109375 C 17.828125 -5.660156 17.457031 -4.367188 16.71875 -3.234375 C 15.988281 -2.109375 14.925781 -1.234375 13.53125 -0.609375 C 12.144531 0.00390625 10.519531 0.3125 8.65625 0.3125 C 7.101562 0.3125 5.796875 0.203125 4.734375 -0.015625 C 3.679688 -0.234375 2.582031 -0.613281 1.4375 -1.15625 L 1.4375 -6.78125 C 2.644531 -6.164062 3.898438 -5.679688 5.203125 -5.328125 C 6.503906 -4.984375 7.695312 -4.8125 8.78125 -4.8125 C 9.726562 -4.8125 10.421875 -4.972656 10.859375 -5.296875 C 11.296875 -5.628906 11.515625 -6.050781 11.515625 -6.5625 C 11.515625 -6.882812 11.425781 -7.164062 11.25 -7.40625 C 11.070312 -7.644531 10.785156 -7.882812 10.390625 -8.125 C 10.003906 -8.375 8.96875 -8.878906 7.28125 -9.640625 C 5.757812 -10.328125 4.613281 -10.992188 3.84375 -11.640625 C 3.082031 -12.296875 2.515625 -13.046875 2.140625 -13.890625 C 1.773438 -14.734375 1.59375 -15.734375 1.59375 -16.890625 C 1.59375 -19.046875 2.378906 -20.722656 3.953125 -21.921875 C 5.523438 -23.128906 7.679688 -23.734375 10.421875 -23.734375 C 12.835938 -23.734375 15.304688 -23.175781 17.828125 -22.0625 L 15.890625 -17.171875 C 13.703125 -18.171875 11.816406 -18.671875 10.234375 -18.671875 C 9.410156 -18.671875 8.8125 -18.523438 8.4375 -18.234375 C 8.0625 -17.953125 7.875 -17.597656 7.875 -17.171875 C 7.875 -16.710938 8.109375 -16.300781 8.578125 -15.9375 C 9.054688 -15.570312 10.347656 -14.910156 12.453125 -13.953125 C 14.472656 -13.046875 15.875 -12.070312 16.65625 -11.03125 C 17.4375 -9.988281 17.828125 -8.679688 17.828125 -7.109375 Z M 17.828125 -7.109375 "/></g></g></g><g fill="#595b59" fill-opacity="1"><g transform="translate(162.949859, 265.084816)"><g><path d="M 22.390625 -12.203125 C 22.390625 -8.296875 21.3125 -5.285156 19.15625 -3.171875 C 17.007812 -1.054688 13.988281 0 10.09375 0 L 2.53125 0 L 2.53125 -23.40625 L 10.625 -23.40625 C 14.382812 -23.40625 17.285156 -22.441406 19.328125 -20.515625 C 21.367188 -18.597656 22.390625 -15.828125 22.390625 -12.203125 Z M 15.828125 -11.96875 C 15.828125 -14.113281 15.398438 -15.703125 14.546875 -16.734375 C 13.703125 -17.773438 12.414062 -18.296875 10.6875 -18.296875 L 8.859375 -18.296875 L 8.859375 -5.1875 L 10.265625 -5.1875 C 12.179688 -5.1875 13.585938 -5.742188 14.484375 -6.859375 C 15.378906 -7.972656 15.828125 -9.675781 15.828125 -11.96875 Z M 15.828125 -11.96875 "/></g></g></g><g fill="#595b59" fill-opacity="1"><g transform="translate(190.086671, 265.084816)"><g><path d="M 16.890625 0 L 15.734375 -4.390625 L 8.125 -4.390625 L 6.953125 0 L 0 0 L 7.640625 -23.5 L 16.078125 -23.5 L 23.796875 0 Z M 14.421875 -9.578125 L 13.40625 -13.40625 C 13.175781 -14.257812 12.890625 -15.363281 12.546875 -16.71875 C 12.210938 -18.082031 11.992188 -19.054688 11.890625 -19.640625 C 11.796875 -19.097656 11.609375 -18.203125 11.328125 -16.953125 C 11.046875 -15.703125 10.414062 -13.242188 9.4375 -9.578125 Z M 14.421875 -9.578125 "/></g></g></g><g fill="#595b59" fill-opacity="1"><g transform="translate(216.967411, 265.084816)"><g><path d="M 22.390625 -12.203125 C 22.390625 -8.296875 21.3125 -5.285156 19.15625 -3.171875 C 17.007812 -1.054688 13.988281 0 10.09375 0 L 2.53125 0 L 2.53125 -23.40625 L 10.625 -23.40625 C 14.382812 -23.40625 17.285156 -22.441406 19.328125 -20.515625 C 21.367188 -18.597656 22.390625 -15.828125 22.390625 -12.203125 Z M 15.828125 -11.96875 C 15.828125 -14.113281 15.398438 -15.703125 14.546875 -16.734375 C 13.703125 -17.773438 12.414062 -18.296875 10.6875 -18.296875 L 8.859375 -18.296875 L 8.859375 -5.1875 L 10.265625 -5.1875 C 12.179688 -5.1875 13.585938 -5.742188 14.484375 -6.859375 C 15.378906 -7.972656 15.828125 -9.675781 15.828125 -11.96875 Z M 15.828125 -11.96875 "/></g></g></g><g fill="#595b59" fill-opacity="1"><g transform="translate(244.104223, 265.084816)"><g><path d="M 24.421875 -11.734375 C 24.421875 -7.796875 23.453125 -4.800781 21.515625 -2.75 C 19.585938 -0.707031 16.765625 0.3125 13.046875 0.3125 C 9.367188 0.3125 6.550781 -0.710938 4.59375 -2.765625 C 2.644531 -4.828125 1.671875 -7.828125 1.671875 -11.765625 C 1.671875 -15.660156 2.640625 -18.632812 4.578125 -20.6875 C 6.523438 -22.738281 9.359375 -23.765625 13.078125 -23.765625 C 16.796875 -23.765625 19.613281 -22.742188 21.53125 -20.703125 C 23.457031 -18.671875 24.421875 -15.679688 24.421875 -11.734375 Z M 8.328125 -11.734375 C 8.328125 -7.210938 9.898438 -4.953125 13.046875 -4.953125 C 14.648438 -4.953125 15.835938 -5.5 16.609375 -6.59375 C 17.378906 -7.695312 17.765625 -9.410156 17.765625 -11.734375 C 17.765625 -14.066406 17.375 -15.789062 16.59375 -16.90625 C 15.8125 -18.019531 14.640625 -18.578125 13.078125 -18.578125 C 9.910156 -18.578125 8.328125 -16.296875 8.328125 -11.734375 Z M 8.328125 -11.734375 "/></g></g></g><g fill="#595b59" fill-opacity="1"><g transform="translate(273.305618, 265.084816)"><g><path d="M 7.640625 -23.40625 L 6.984375 -14.953125 L 2.59375 -14.953125 L 1.9375 -23.40625 Z M 7.640625 -23.40625 "/></g></g></g><g fill="#595b59" fill-opacity="1"><g transform="translate(285.958297, 265.084816)"><g><path d="M 17.828125 -7.109375 C 17.828125 -5.660156 17.457031 -4.367188 16.71875 -3.234375 C 15.988281 -2.109375 14.925781 -1.234375 13.53125 -0.609375 C 12.144531 0.00390625 10.519531 0.3125 8.65625 0.3125 C 7.101562 0.3125 5.796875 0.203125 4.734375 -0.015625 C 3.679688 -0.234375 2.582031 -0.613281 1.4375 -1.15625 L 1.4375 -6.78125 C 2.644531 -6.164062 3.898438 -5.679688 5.203125 -5.328125 C 6.503906 -4.984375 7.695312 -4.8125 8.78125 -4.8125 C 9.726562 -4.8125 10.421875 -4.972656 10.859375 -5.296875 C 11.296875 -5.628906 11.515625 -6.050781 11.515625 -6.5625 C 11.515625 -6.882812 11.425781 -7.164062 11.25 -7.40625 C 11.070312 -7.644531 10.785156 -7.882812 10.390625 -8.125 C 10.003906 -8.375 8.96875 -8.878906 7.28125 -9.640625 C 5.757812 -10.328125 4.613281 -10.992188 3.84375 -11.640625 C 3.082031 -12.296875 2.515625 -13.046875 2.140625 -13.890625 C 1.773438 -14.734375 1.59375 -15.734375 1.59375 -16.890625 C 1.59375 -19.046875 2.378906 -20.722656 3.953125 -21.921875 C 5.523438 -23.128906 7.679688 -23.734375 10.421875 -23.734375 C 12.835938 -23.734375 15.304688 -23.175781 17.828125 -22.0625 L 15.890625 -17.171875 C 13.703125 -18.171875 11.816406 -18.671875 10.234375 -18.671875 C 9.410156 -18.671875 8.8125 -18.523438 8.4375 -18.234375 C 8.0625 -17.953125 7.875 -17.597656 7.875 -17.171875 C 7.875 -16.710938 8.109375 -16.300781 8.578125 -15.9375 C 9.054688 -15.570312 10.347656 -14.910156 12.453125 -13.953125 C 14.472656 -13.046875 15.875 -12.070312 16.65625 -11.03125 C 17.4375 -9.988281 17.828125 -8.679688 17.828125 -7.109375 Z M 17.828125 -7.109375 "/></g></g></g><g fill="#595b59" fill-opacity="1"><g transform="translate(97.171129, 285.775059)"><g><path d="M 9.65625 0 L 8.703125 -3.109375 L 3.9375 -3.109375 L 2.984375 0 L 0 0 L 4.625 -13.140625 L 8.015625 -13.140625 L 12.640625 0 Z M 8.046875 -5.4375 C 7.171875 -8.257812 6.675781 -9.851562 6.5625 -10.21875 C 6.457031 -10.59375 6.378906 -10.890625 6.328125 -11.109375 C 6.128906 -10.335938 5.566406 -8.445312 4.640625 -5.4375 Z M 8.046875 -5.4375 "/></g></g></g><g fill="#595b59" fill-opacity="1"><g transform="translate(116.533454, 285.775059)"><g><path d="M 12.5 -6.671875 C 12.5 -4.515625 11.882812 -2.863281 10.65625 -1.71875 C 9.4375 -0.570312 7.671875 0 5.359375 0 L 1.640625 0 L 1.640625 -13.078125 L 5.75 -13.078125 C 7.882812 -13.078125 9.539062 -12.515625 10.71875 -11.390625 C 11.90625 -10.265625 12.5 -8.691406 12.5 -6.671875 Z M 9.625 -6.59375 C 9.625 -9.40625 8.378906 -10.8125 5.890625 -10.8125 L 4.421875 -10.8125 L 4.421875 -2.296875 L 5.609375 -2.296875 C 8.285156 -2.296875 9.625 -3.726562 9.625 -6.59375 Z M 9.625 -6.59375 "/></g></g></g><g fill="#595b59" fill-opacity="1"><g transform="translate(136.816959, 285.775059)"><g><path d="M 9.109375 -13.078125 L 11.90625 -13.078125 L 7.46875 0 L 4.4375 0 L 0 -13.078125 L 2.796875 -13.078125 L 5.265625 -5.296875 C 5.398438 -4.835938 5.539062 -4.300781 5.6875 -3.6875 C 5.832031 -3.082031 5.921875 -2.660156 5.953125 -2.421875 C 6.023438 -2.960938 6.25 -3.921875 6.625 -5.296875 Z M 9.109375 -13.078125 "/></g></g></g><g fill="#595b59" fill-opacity="1"><g transform="translate(155.445911, 285.775059)"><g><path d="M 9.1875 0 L 1.640625 0 L 1.640625 -13.078125 L 9.1875 -13.078125 L 9.1875 -10.8125 L 4.421875 -10.8125 L 4.421875 -7.9375 L 8.84375 -7.9375 L 8.84375 -5.671875 L 4.421875 -5.671875 L 4.421875 -2.296875 L 9.1875 -2.296875 Z M 9.1875 0 "/></g></g></g><g fill="#595b59" fill-opacity="1"><g transform="translate(172.429251, 285.775059)"><g><path d="M 13.25 0 L 9.734375 0 L 4.03125 -9.890625 L 3.953125 -9.890625 C 4.066406 -8.148438 4.125 -6.90625 4.125 -6.15625 L 4.125 0 L 1.640625 0 L 1.640625 -13.078125 L 5.140625 -13.078125 L 10.828125 -3.28125 L 10.890625 -3.28125 C 10.796875 -4.976562 10.75 -6.179688 10.75 -6.890625 L 10.75 -13.078125 L 13.25 -13.078125 Z M 13.25 0 "/></g></g></g><g fill="#595b59" fill-opacity="1"><g transform="translate(194.045349, 285.775059)"><g><path d="M 6.6875 0 L 3.921875 0 L 3.921875 -10.78125 L 0.359375 -10.78125 L 0.359375 -13.078125 L 10.25 -13.078125 L 10.25 -10.78125 L 6.6875 -10.78125 Z M 6.6875 0 "/></g></g></g><g fill="#595b59" fill-opacity="1"><g transform="translate(211.377481, 285.775059)"><g><path d="M 12.296875 -13.078125 L 12.296875 -4.625 C 12.296875 -3.65625 12.078125 -2.804688 11.640625 -2.078125 C 11.210938 -1.347656 10.585938 -0.789062 9.765625 -0.40625 C 8.953125 -0.0195312 7.988281 0.171875 6.875 0.171875 C 5.1875 0.171875 3.878906 -0.253906 2.953125 -1.109375 C 2.023438 -1.972656 1.5625 -3.15625 1.5625 -4.65625 L 1.5625 -13.078125 L 4.328125 -13.078125 L 4.328125 -5.078125 C 4.328125 -4.066406 4.53125 -3.320312 4.9375 -2.84375 C 5.34375 -2.375 6.007812 -2.140625 6.9375 -2.140625 C 7.851562 -2.140625 8.515625 -2.378906 8.921875 -2.859375 C 9.328125 -3.335938 9.53125 -4.082031 9.53125 -5.09375 L 9.53125 -13.078125 Z M 12.296875 -13.078125 "/></g></g></g><g fill="#595b59" fill-opacity="1"><g transform="translate(231.947183, 285.775059)"><g><path d="M 4.421875 -7.28125 L 5.3125 -7.28125 C 6.1875 -7.28125 6.832031 -7.425781 7.25 -7.71875 C 7.675781 -8.007812 7.890625 -8.46875 7.890625 -9.09375 C 7.890625 -9.707031 7.675781 -10.144531 7.25 -10.40625 C 6.820312 -10.675781 6.160156 -10.8125 5.265625 -10.8125 L 4.421875 -10.8125 Z M 4.421875 -5.015625 L 4.421875 0 L 1.640625 0 L 1.640625 -13.078125 L 5.453125 -13.078125 C 7.234375 -13.078125 8.550781 -12.753906 9.40625 -12.109375 C 10.257812 -11.460938 10.6875 -10.484375 10.6875 -9.171875 C 10.6875 -8.398438 10.472656 -7.710938 10.046875 -7.109375 C 9.628906 -6.503906 9.03125 -6.035156 8.25 -5.703125 C 10.21875 -2.753906 11.5 -0.851562 12.09375 0 L 9.015625 0 L 5.890625 -5.015625 Z M 4.421875 -5.015625 "/></g></g></g><g fill="#595b59" fill-opacity="1"><g transform="translate(250.763946, 285.775059)"><g><path d="M 9.1875 0 L 1.640625 0 L 1.640625 -13.078125 L 9.1875 -13.078125 L 9.1875 -10.8125 L 4.421875 -10.8125 L 4.421875 -7.9375 L 8.84375 -7.9375 L 8.84375 -5.671875 L 4.421875 -5.671875 L 4.421875 -2.296875 L 9.1875 -2.296875 Z M 9.1875 0 "/></g></g></g><g fill="#595b59" fill-opacity="1"><g transform="translate(267.747286, 285.775059)"><g><path d="M 9.375 -3.640625 C 9.375 -2.453125 8.945312 -1.519531 8.09375 -0.84375 C 7.238281 -0.164062 6.054688 0.171875 4.546875 0.171875 C 3.148438 0.171875 1.914062 -0.0859375 0.84375 -0.609375 L 0.84375 -3.1875 C 1.726562 -2.789062 2.472656 -2.507812 3.078125 -2.34375 C 3.691406 -2.1875 4.253906 -2.109375 4.765625 -2.109375 C 5.367188 -2.109375 5.832031 -2.222656 6.15625 -2.453125 C 6.488281 -2.691406 6.65625 -3.039062 6.65625 -3.5 C 6.65625 -3.757812 6.582031 -3.988281 6.4375 -4.1875 C 6.289062 -4.382812 6.078125 -4.570312 5.796875 -4.75 C 5.523438 -4.9375 4.960938 -5.234375 4.109375 -5.640625 C 3.304688 -6.015625 2.703125 -6.375 2.296875 -6.71875 C 1.898438 -7.070312 1.582031 -7.476562 1.34375 -7.9375 C 1.113281 -8.394531 1 -8.929688 1 -9.546875 C 1 -10.703125 1.390625 -11.609375 2.171875 -12.265625 C 2.953125 -12.929688 4.035156 -13.265625 5.421875 -13.265625 C 6.097656 -13.265625 6.742188 -13.179688 7.359375 -13.015625 C 7.984375 -12.859375 8.632812 -12.632812 9.3125 -12.34375 L 8.40625 -10.1875 C 7.707031 -10.476562 7.128906 -10.679688 6.671875 -10.796875 C 6.222656 -10.910156 5.773438 -10.96875 5.328125 -10.96875 C 4.804688 -10.96875 4.40625 -10.84375 4.125 -10.59375 C 3.84375 -10.351562 3.703125 -10.035156 3.703125 -9.640625 C 3.703125 -9.390625 3.757812 -9.171875 3.875 -8.984375 C 3.988281 -8.804688 4.164062 -8.632812 4.40625 -8.46875 C 4.65625 -8.300781 5.242188 -7.992188 6.171875 -7.546875 C 7.398438 -6.960938 8.238281 -6.375 8.6875 -5.78125 C 9.144531 -5.195312 9.375 -4.484375 9.375 -3.640625 Z M 9.375 -3.640625 "/></g></g></g><g clip-path="url(#fc06204de7)"><path fill="#f68712" d="M 187.308594 84.371094 C 142.453125 84.371094 106.089844 120.855469 106.089844 165.859375 C 106.089844 179.007812 109.199219 191.421875 114.710938 202.417969 L 166.585938 133.96875 L 192.03125 165.652344 L 208.519531 144.511719 L 259.121094 203.941406 C 265.121094 192.574219 268.527344 179.617188 268.527344 165.859375 C 268.527344 120.855469 232.164062 84.371094 187.308594 84.371094 " fill-opacity="1" fill-rule="nonzero"/></g><g clip-path="url(#7ed6080451)"><path fill="#336b87" d="M 99.5625 226.019531 L 166.636719 137.515625 L 192.054688 169.167969 L 208.59375 147.964844 L 275.054688 226.019531 L 230.75 191.085938 L 210.582031 176.675781 L 193.28125 181.765625 L 209.664062 201.433594 L 181.949219 184.839844 L 159.589844 171.011719 L 166.023438 198.667969 L 146.113281 186.070312 L 132.945312 212.191406 L 99.5625 226.019531 " fill-opacity="1" fill-rule="nonzero"/></g></svg>